<svg width="50" height="50" viewBox="0 0 50 50" fill="none" xmlns="http://www.w3.org/2000/svg">
<g clip-path="url(#clip0_28_25)">
<path d="M16.4234 24.1937C16.4234 20.1984 13.3547 16.0641 8.14687 16.0641C4.14218 16.0641 0.0015564 19.1328 0.0015564 24.3328C0.0015564 28.3281 3.07031 32.4703 8.27812 32.4703C9.9781 32.4619 11.6333 31.9246 13.0141 30.9328L15.4219 33.3328L16.4891 32.2656L14.2187 29.9953C15.6187 28.4656 16.425 26.4641 16.425 24.1937H16.4234ZM8.14531 17.5297C11.9453 17.5297 14.9578 20.4672 14.9578 24.2672C14.9578 27.5312 12.4187 30.9984 8.20937 30.9984C4.00312 30.9984 1.46406 27.5969 1.46406 24.3344C1.46406 20.0703 4.87499 17.5297 8.14531 17.5297V17.5297ZM20.3609 20.8H21.7609V32.1297H20.3609V20.8ZM21.0297 19.2625C20.8669 19.2708 20.7042 19.2459 20.5514 19.1894C20.3986 19.1328 20.2589 19.0458 20.1407 18.9335C20.0226 18.8213 19.9285 18.6862 19.8643 18.5364C19.8 18.3867 19.7669 18.2254 19.7669 18.0625C19.7669 17.8995 19.8 17.7383 19.8643 17.5886C19.9285 17.4388 20.0226 17.3037 20.1407 17.1915C20.2589 17.0792 20.3986 16.9922 20.5514 16.9356C20.7042 16.8791 20.8669 16.8542 21.0297 16.8625C21.6969 16.8625 22.2344 17.4 22.2344 18.0672C22.2344 18.7344 21.6969 19.2625 21.0297 19.2625V19.2625ZM26.7 19.2625C26.5422 19.2637 26.3858 19.2337 26.2397 19.1742C26.0936 19.1147 25.9607 19.0268 25.8487 18.9157C25.7367 18.8046 25.6478 18.6724 25.5872 18.5268C25.5265 18.3811 25.4953 18.2249 25.4953 18.0672C25.4951 17.9089 25.5261 17.7522 25.5866 17.6059C25.6471 17.4597 25.7358 17.3268 25.8477 17.2149C25.9596 17.103 26.0925 17.0142 26.2387 16.9538C26.385 16.8933 26.5417 16.8623 26.7 16.8625C27.3687 16.8625 27.9062 17.4 27.9062 18.0672C27.9062 18.7344 27.3687 19.2625 26.7 19.2625ZM26.0328 20.8H27.4406V32.1297H26.0328V20.8ZM35.8484 32.3328C33.2437 32.3328 31.7062 30.3312 31.7062 28.3375V17.6672H33.1141V20.8H38.0531V22.2H33.1141V28.4016C33.1141 29.6625 34.1141 30.9969 35.8469 30.9969C36.3109 30.9969 36.7828 30.8656 37.1828 30.5984L37.3125 30.5312L37.9797 31.7266L37.85 31.8016C37.2361 32.1389 36.5489 32.3208 35.8484 32.3312V32.3328ZM45.125 32.3984C41.325 32.3984 39.0547 29.4031 39.0547 26.4656C39.0547 22.6656 42.0594 20.3953 44.9969 20.3953C46.5344 20.3953 47.7297 20.9328 48.6016 21.9328V20.8016H50.0016V32.1312H48.6016V30.8687C47.7953 31.8703 46.6 32.4 45.1266 32.4L45.125 32.3984ZM44.9953 21.8016C42.725 21.8016 40.4531 23.5344 40.4531 26.4641C40.4531 28.7344 42.1859 30.9969 45.1234 30.9969C45.8 30.9975 46.4683 30.8482 47.0802 30.5596C47.6922 30.2711 48.2325 29.8505 48.6625 29.3281V23.4609C48.2089 22.9336 47.6455 22.5117 47.0118 22.2248C46.3781 21.9379 45.6893 21.7929 44.9937 21.8L44.9953 21.8016Z" fill="white"/>
</g>
<defs>
<clipPath id="clip0_28_25">
<rect width="50" height="50" fill="white"/>
</clipPath>
</defs>
</svg>
